<svg width="50" height="50" viewBox="0 0 50 50" fill="none" xmlns="http://www.w3.org/2000/svg">
<rect width="50" height="50" rx="25" fill="white"/>
<path d="M25 22.4543L19.0729 16.5272C18.37 15.8243 17.2301 15.8243 16.5272 16.5272C15.8243 17.2301 15.8243 18.37 16.5272 19.0729L22.4543 25L16.5272 30.9271C15.8243 31.63 15.8243 32.7699 16.5272 33.4728C17.2301 34.1757 18.37 34.1757 19.0729 33.4728L25 27.5457L30.9271 33.4728C31.63 34.1757 32.7699 34.1757 33.4728 33.4728C34.1757 32.7699 34.1757 31.63 33.4728 30.9271L27.5457 25L33.4728 19.0729C34.1757 18.37 34.1757 17.2301 33.4728 16.5272C32.7699 15.8243 31.63 15.8243 30.9271 16.5272L25 22.4543Z" fill="#0072C0"/>
</svg>
