<svg width="64" height="64" viewBox="0 0 64 64" fill="none" xmlns="http://www.w3.org/2000/svg">
<rect width="64" height="64" fill="white"/>
<path d="M50 32.1095C50 22.169 41.9405 14.1095 32 14.1095C22.0595 14.1095 14 22.169 14 32.1095C14 41.0945 20.582 48.5405 29.1875 49.8905V37.313H24.617V32.108H29.1875V28.145C29.1875 23.6345 31.8755 21.1415 35.987 21.1415C37.955 21.1415 40.016 21.494 40.016 21.494V25.9235H37.745C35.5085 25.9235 34.811 27.311 34.811 28.7345V32.1095H39.803L39.005 37.3145H34.811V49.892C43.418 48.5405 50 41.093 50 32.1095Z" fill="#00A38B"/>
</svg>
