<svg width="300" height="89" viewBox="0 0 300 89" fill="none" xmlns="http://www.w3.org/2000/svg">
<g clip-path="url(#clip0_32_3)">
<path fill-rule="evenodd" clip-rule="evenodd" d="M288.885 88.5242H11.1152C4.98915 88.5242 0 83.5351 0 77.4587V11.0655C0 4.96707 4.98915 0 11.1152 0H288.885C295.005 0 300 4.96707 300 11.0655V77.4587C300 83.5351 295.005 88.5242 288.885 88.5242Z" fill="black"/>
<path fill-rule="evenodd" clip-rule="evenodd" d="M288.885 1.77159C294.023 1.77159 298.228 5.94945 298.228 11.0655V77.4587C298.228 82.5748 294.051 86.7526 288.885 86.7526H11.1152C5.97704 86.7526 1.77159 82.5748 1.77159 77.4587V11.0655C1.77159 5.94945 5.94945 1.77159 11.1152 1.77159C11.1152 1.77159 288.885 1.77159 288.885 1.77159ZM288.885 0H11.1152C4.98915 0 0 4.98915 0 11.0655V77.4587C0 83.5572 4.98915 88.5242 11.1152 88.5242H288.885C295.005 88.5242 300 83.5572 300 77.4587V11.0655C300 4.98915 295.005 0 288.885 0Z" fill="#A6A6A6"/>
<path d="M158.04 29.2836C156.037 29.2836 154.348 28.5827 153.013 27.203C151.688 25.8619 150.949 24.013 150.982 22.1255C150.982 20.1111 151.666 18.4058 153.013 17.0536C154.343 15.6739 156.032 14.973 158.035 14.973C160.016 14.973 161.705 15.6739 163.063 17.0536C164.409 18.4499 165.094 20.1553 165.094 22.1255C165.072 24.1455 164.387 25.8508 163.063 27.1975C161.733 28.5882 160.044 29.2836 158.04 29.2836ZM98.4303 29.2836C96.4711 29.2836 94.7712 28.5938 93.3804 27.2306C92.0007 25.8729 91.2998 24.1565 91.2998 22.1311C91.2998 20.1056 92.0007 18.3892 93.3804 17.0315C94.7436 15.6683 96.4435 14.9785 98.4303 14.9785C99.4016 14.9785 100.345 15.1716 101.25 15.5635C102.139 15.9443 102.862 16.4631 103.397 17.0978L103.53 17.2578L102.034 18.7259L101.88 18.5437C101.035 17.5393 99.9038 17.0481 98.4082 17.0481C97.0726 17.0481 95.9081 17.5227 94.9478 18.4609C93.982 19.4047 93.4908 20.6409 93.4908 22.1366C93.4908 23.6322 93.982 24.8685 94.9478 25.8122C95.9081 26.7504 97.0726 27.2251 98.4082 27.2251C99.8321 27.2251 101.03 26.7504 101.962 25.8122C102.514 25.2603 102.856 24.4877 102.978 23.5108H98.1819V21.4467H105.036L105.064 21.6343C105.114 21.982 105.163 22.3408 105.163 22.6719C105.163 24.576 104.589 26.1157 103.453 27.2527C102.161 28.5993 100.472 29.2836 98.4303 29.2836ZM177.688 28.9911H175.574L169.1 18.632L169.156 20.4974V28.9856H167.042V15.271H169.454L169.52 15.3758L175.607 25.1334L175.552 23.2735V15.271H177.688V28.9911V28.9911ZM142.157 28.9911H140.016V17.3351H136.301V15.271H145.866V17.3351H142.151V28.9911H142.157ZM134.557 28.9911H132.422V15.271H134.557V28.9911ZM122.554 28.9911H120.418V17.3351H116.704V15.271H126.268V17.3351H122.554V28.9911ZM115.351 28.9691H107.161V15.271H115.351V17.3351H109.303V21.099H114.761V23.141H109.303V26.905H115.351V28.9691ZM154.58 25.7846C155.535 26.7394 156.694 27.2195 158.04 27.2195C159.426 27.2195 160.557 26.7504 161.501 25.7846C162.439 24.8464 162.914 23.6157 162.914 22.1311C162.914 20.6465 162.439 19.4102 161.506 18.4775C160.552 17.5227 159.387 17.0426 158.046 17.0426C156.661 17.0426 155.529 17.5117 154.591 18.4775C153.653 19.4157 153.178 20.6465 153.178 22.1311C153.178 23.6157 153.647 24.8519 154.58 25.7846Z" fill="white"/>
<path fill-rule="evenodd" clip-rule="evenodd" d="M150.784 48.1475C145.568 48.1475 141.341 52.1046 141.341 57.5628C141.341 62.9714 145.596 66.9782 150.784 66.9782C155.999 66.9782 160.227 62.9935 160.227 57.5628C160.227 52.1046 155.999 48.1475 150.784 48.1475ZM150.784 63.2474C147.93 63.2474 145.475 60.8852 145.475 57.5408C145.475 54.1466 147.936 51.8341 150.784 51.8341C153.637 51.8341 156.093 54.1466 156.093 57.5408C156.099 60.9073 153.637 63.2474 150.784 63.2474ZM130.181 48.1475C124.966 48.1475 120.738 52.1046 120.738 57.5628C120.738 62.9714 124.994 66.9782 130.181 66.9782C135.397 66.9782 139.624 62.9935 139.624 57.5628C139.624 52.1046 135.391 48.1475 130.181 48.1475ZM130.181 63.2474C127.328 63.2474 124.872 60.8852 124.872 57.5408C124.872 54.1466 127.334 51.8341 130.181 51.8341C133.035 51.8341 135.491 54.1466 135.491 57.5408C135.491 60.9073 133.035 63.2474 130.181 63.2474ZM105.666 51.0229V55.0075H115.231C114.938 57.2427 114.199 58.8929 113.067 60.0243C111.665 61.4261 109.502 62.9493 105.688 62.9493C99.8106 62.9493 95.2133 58.203 95.2133 52.3253C95.2133 46.4476 99.8106 41.7013 105.688 41.7013C108.862 41.7013 111.174 42.9541 112.891 44.5546L115.716 41.7289C113.332 39.4441 110.159 37.6945 105.71 37.6945C97.6471 37.6945 90.8809 44.2621 90.8809 52.3033C90.8809 60.3665 97.6416 66.912 105.71 66.912C110.065 66.912 113.332 65.4881 115.915 62.8058C118.547 60.1733 119.381 56.459 119.381 53.4622C119.381 52.5295 119.309 51.6907 119.16 50.9787H105.661C105.666 50.9732 105.666 51.0229 105.666 51.0229ZM205.94 54.1245C205.151 52.0108 202.767 48.1254 197.877 48.1254C193.031 48.1254 189.003 51.939 189.003 57.5408C189.003 62.8279 192.987 66.9561 198.346 66.9561C202.651 66.9561 205.157 64.3236 206.189 62.7783L202.993 60.6369C201.934 62.2098 200.46 63.2418 198.368 63.2418C196.255 63.2418 194.775 62.2815 193.793 60.3885L206.382 55.1731C206.382 55.1786 205.94 54.1245 205.94 54.1245ZM193.103 57.2703C193.004 53.6333 195.929 51.7845 198.021 51.7845C199.671 51.7845 201.045 52.5958 201.514 53.7768L193.103 57.2703ZM182.877 66.3932H187.01V38.7321H182.877V66.3932ZM176.088 50.2392H175.939C175.007 49.1298 173.235 48.1254 170.972 48.1254C166.276 48.1254 161.949 52.2591 161.949 57.5683C161.949 62.8555 166.253 66.9396 170.972 66.9396C173.207 66.9396 175.007 65.9296 175.939 64.7982H176.088V66.1503C176.088 69.7432 174.168 71.6804 171.072 71.6804C168.538 71.6804 166.965 69.8591 166.325 68.3359L162.732 69.837C163.764 72.3205 166.518 75.3946 171.066 75.3946C175.912 75.3946 180.018 72.5413 180.018 65.5819V48.6883H176.11V50.2392C176.116 50.2392 176.088 50.2392 176.088 50.2392ZM171.342 63.2474C168.489 63.2474 166.104 60.8632 166.104 57.5683C166.104 54.2459 168.489 51.8397 171.342 51.8397C174.168 51.8397 176.359 54.2735 176.359 57.5683C176.386 60.8632 174.173 63.2474 171.342 63.2474ZM225.295 38.7321H215.411V66.3932H219.545V55.9182H225.301C229.876 55.9182 234.374 52.6013 234.374 47.3362C234.374 42.0711 229.893 38.7321 225.295 38.7321ZM225.417 52.0549H219.539V42.5623H225.417C228.513 42.5623 230.262 45.1176 230.262 47.3086C230.262 49.4775 228.491 52.0549 225.417 52.0549ZM250.942 48.0978C247.94 48.0978 244.844 49.4279 243.563 52.3253L247.228 53.8486C248.017 52.3253 249.463 51.8065 250.992 51.8065C253.133 51.8065 255.297 53.0869 255.346 55.3718V55.6643C254.607 55.2449 252.984 54.6047 251.041 54.6047C247.084 54.6047 243.072 56.7681 243.072 60.8245C243.072 64.5388 246.317 66.923 249.932 66.923C252.708 66.923 254.237 65.6702 255.192 64.2187H255.341V66.3601H259.325V55.7636C259.325 50.8297 255.661 48.0978 250.942 48.0978ZM250.423 63.2474C249.071 63.2474 247.178 62.5851 247.178 60.8852C247.178 58.7439 249.54 57.9326 251.555 57.9326C253.376 57.9326 254.237 58.3244 255.319 58.8653C255.021 61.3488 252.923 63.2253 250.423 63.2474ZM273.862 48.6883L269.116 60.6866H268.967L264.05 48.6883H259.601L266.98 65.4605L262.775 74.782H267.08L278.432 48.6883H273.862ZM236.653 66.3932H240.787V38.7321H236.653V66.3932Z" fill="white"/>
<path fill-rule="evenodd" clip-rule="evenodd" d="M23.091 16.6728C22.4508 17.3627 22.0811 18.4168 22.0811 19.7965V68.7332C22.0811 70.1129 22.4508 71.167 23.1131 71.8293L23.2842 71.9783L50.7025 44.5601V43.9475L23.2621 16.5238L23.091 16.6728Z" fill="url(#paint0_linear_32_3)"/>
<path fill-rule="evenodd" clip-rule="evenodd" d="M59.8256 53.7271L50.6807 44.5822V43.942L59.8256 34.7971L60.0242 34.9185L70.8414 41.0666C73.9375 42.8106 73.9375 45.6915 70.8414 47.4576L60.0242 53.6057L59.8256 53.7271Z" fill="url(#paint1_linear_32_3)"/>
<path fill-rule="evenodd" clip-rule="evenodd" d="M60.0247 53.6057L50.6811 44.2621L23.0918 71.8514C24.1018 72.9331 25.7961 73.0546 27.6891 72.0004L60.0247 53.6057Z" fill="url(#paint2_linear_32_3)"/>
<path fill-rule="evenodd" clip-rule="evenodd" d="M60.0247 34.9185L27.6891 16.5514C25.7961 15.4697 24.0962 15.6187 23.0918 16.7004L50.6811 44.2621L60.0247 34.9185Z" fill="url(#paint3_linear_32_3)"/>
<path opacity="0.2" fill-rule="evenodd" clip-rule="evenodd" d="M59.8255 53.407L27.7106 71.6528C25.9169 72.6848 24.3164 72.6131 23.2844 71.6748L23.1133 71.8459L23.2844 71.995C24.3164 72.9277 25.9169 73.0049 27.7106 71.9729L60.0462 53.6057L59.8255 53.407Z" fill="black"/>
<path opacity="0.12" fill-rule="evenodd" clip-rule="evenodd" d="M70.8413 47.1375L59.7979 53.407L59.9965 53.6057L70.8137 47.4576C72.3645 46.5746 73.1262 45.4156 73.1262 44.2621C73.0323 45.3218 72.2431 46.3262 70.8413 47.1375Z" fill="black"/>
<path opacity="0.25" fill-rule="evenodd" clip-rule="evenodd" d="M27.6883 16.8715L70.8412 41.3868C72.243 42.176 73.0322 43.208 73.1536 44.2621C73.1536 43.1087 72.392 41.9497 70.8412 41.0667L27.6883 16.5514C24.5922 14.7798 22.0811 16.2589 22.0811 19.7965V20.1166C22.0811 16.5735 24.5922 15.122 27.6883 16.8715Z" fill="white"/>
</g>
<defs>
<linearGradient id="paint0_linear_32_3" x1="48.2431" y1="19.2686" x2="4.32376" y2="30.971" gradientUnits="userSpaceOnUse">
<stop stop-color="#00A0FF"/>
<stop offset="0.00657" stop-color="#00A1FF"/>
<stop offset="0.2601" stop-color="#00BEFF"/>
<stop offset="0.5122" stop-color="#00D2FF"/>
<stop offset="0.7604" stop-color="#00DFFF"/>
<stop offset="1" stop-color="#00E3FF"/>
</linearGradient>
<linearGradient id="paint1_linear_32_3" x1="74.879" y1="44.2622" x2="21.3289" y2="44.2622" gradientUnits="userSpaceOnUse">
<stop stop-color="#FFE000"/>
<stop offset="0.4087" stop-color="#FFBD00"/>
<stop offset="0.7754" stop-color="#FFA500"/>
<stop offset="1" stop-color="#FF9C00"/>
</linearGradient>
<linearGradient id="paint2_linear_32_3" x1="54.944" y1="49.3464" x2="19.6859" y2="108.689" gradientUnits="userSpaceOnUse">
<stop stop-color="#FF3A44"/>
<stop offset="1" stop-color="#C31162"/>
</linearGradient>
<linearGradient id="paint3_linear_32_3" x1="16.1445" y1="0.395682" x2="31.8746" y2="26.8989" gradientUnits="userSpaceOnUse">
<stop stop-color="#32A071"/>
<stop offset="0.0685" stop-color="#2DA771"/>
<stop offset="0.4762" stop-color="#15CF74"/>
<stop offset="0.8009" stop-color="#06E775"/>
<stop offset="1" stop-color="#00F076"/>
</linearGradient>
<clipPath id="clip0_32_3">
<rect width="300" height="88.5242" fill="white"/>
</clipPath>
</defs>
</svg>
