<svg width="64" height="64" viewBox="0 0 64 64" fill="none" xmlns="http://www.w3.org/2000/svg">
<rect width="64" height="64" fill="white"/>
<path d="M32 14C27.11 14 26.4995 14.0225 24.5795 14.108C22.6625 14.198 21.3575 14.4995 20.21 14.945C19.0265 15.404 18.0215 16.0205 17.021 17.021C16.0205 18.0215 15.4025 19.025 14.945 20.21C14.4995 21.3575 14.1965 22.6625 14.108 24.5795C14.018 26.4995 14 27.11 14 32C14 36.89 14.0225 37.5005 14.108 39.4205C14.198 41.336 14.4995 42.6425 14.945 43.79C15.404 44.972 16.0205 45.9785 17.021 46.979C18.0215 47.978 19.025 48.5975 20.21 49.055C21.359 49.499 22.664 49.8035 24.5795 49.892C26.4995 49.982 27.11 50 32 50C36.89 50 37.5005 49.9775 39.4205 49.892C41.336 49.802 42.6425 49.499 43.79 49.055C44.972 48.596 45.9785 47.978 46.979 46.979C47.978 45.9785 48.5975 44.9765 49.055 43.79C49.499 42.6425 49.8035 41.336 49.892 39.4205C49.982 37.5005 50 36.89 50 32C50 27.11 49.9775 26.4995 49.892 24.5795C49.802 22.664 49.499 21.356 49.055 20.21C48.596 19.0265 47.978 18.0215 46.979 17.021C45.9785 16.0205 44.9765 15.4025 43.79 14.945C42.6425 14.4995 41.336 14.1965 39.4205 14.108C37.5005 14.018 36.89 14 32 14ZM32 17.24C36.8045 17.24 37.3775 17.264 39.275 17.3465C41.03 17.429 41.9825 17.72 42.6155 17.969C43.4585 18.2945 44.0555 18.6845 44.6885 19.313C45.317 19.943 45.707 20.5415 46.0325 21.3845C46.2785 22.0175 46.5725 22.97 46.652 24.725C46.7375 26.624 46.757 27.194 46.757 32C46.757 36.806 46.7345 37.3775 46.646 39.275C46.5545 41.03 46.262 41.9825 46.0145 42.6155C45.6785 43.4585 45.296 44.0555 44.666 44.6885C44.0375 45.317 43.43 45.707 42.596 46.0325C41.966 46.2785 40.9985 46.5725 39.2435 46.652C37.3325 46.7375 36.77 46.757 31.955 46.757C27.1385 46.757 26.576 46.7345 24.6665 46.646C22.91 46.5545 21.9425 46.262 21.3125 46.0145C20.459 45.6785 19.8725 45.296 19.244 44.666C18.6125 44.0375 18.209 43.43 17.894 42.596C17.6465 41.966 17.3555 40.9985 17.264 39.2435C17.1965 37.3535 17.1725 36.77 17.1725 31.9775C17.1725 27.1835 17.1965 26.5985 17.264 24.686C17.3555 22.931 17.6465 21.965 17.894 21.335C18.209 20.48 18.6125 19.895 19.244 19.2635C19.8725 18.635 20.459 18.23 21.3125 17.9165C21.9425 17.6675 22.889 17.375 24.644 17.285C26.5565 17.2175 27.119 17.195 31.9325 17.195L32 17.24ZM32 22.757C26.8925 22.757 22.757 26.897 22.757 32C22.757 37.1075 26.897 41.243 32 41.243C37.1075 41.243 41.243 37.103 41.243 32C41.243 26.8925 37.103 22.757 32 22.757ZM32 38C28.685 38 26 35.315 26 32C26 28.685 28.685 26 32 26C35.315 26 38 28.685 38 32C38 35.315 35.315 38 32 38ZM43.769 22.3925C43.769 23.585 42.8 24.5525 41.609 24.5525C40.4165 24.5525 39.449 23.5835 39.449 22.3925C39.449 21.2015 40.418 20.234 41.609 20.234C42.7985 20.2325 43.769 21.2015 43.769 22.3925Z" fill="#00A38B"/>
</svg>
