<svg width="64" height="64" viewBox="0 0 64 64" fill="none" xmlns="http://www.w3.org/2000/svg">
<rect width="64" height="64" fill="white"/>
<g clip-path="url(#clip0_108_4)">
<path d="M14 18.9961C14 17.8378 14.4054 16.8822 15.2162 16.1293C16.027 15.3764 17.0811 15 18.3784 15C19.6525 15 20.6834 15.3706 21.471 16.112C22.2818 16.8764 22.6873 17.8726 22.6873 19.1004C22.6873 20.2124 22.2934 21.139 21.5058 21.8803C20.695 22.6448 19.6293 23.027 18.3089 23.027H18.2741C17 23.027 15.9691 22.6448 15.1815 21.8803C14.3938 21.1158 14 20.1544 14 18.9961ZM14.4517 49.4015V26.1892H22.166V49.4015H14.4517ZM26.4402 49.4015H34.1544V36.4401C34.1544 35.6293 34.2471 35.0038 34.4324 34.5637C34.7567 33.776 35.249 33.11 35.9093 32.5656C36.5695 32.0212 37.3977 31.749 38.3938 31.749C40.9884 31.749 42.2857 33.498 42.2857 36.9961V49.4015H50V36.0927C50 32.6641 49.1892 30.0637 47.5676 28.2915C45.9459 26.5193 43.8031 25.6332 41.139 25.6332C38.1506 25.6332 35.8224 26.9189 34.1544 29.4903V29.5598H34.1197L34.1544 29.4903V26.1892H26.4402C26.4865 26.9305 26.5097 29.2355 26.5097 33.1042C26.5097 36.9729 26.4865 42.4054 26.4402 49.4015Z" fill="#00A38B"/>
</g>
<defs>
<clipPath id="clip0_108_4">
<rect width="36" height="34.4016" fill="white" transform="translate(14 15)"/>
</clipPath>
</defs>
</svg>
