<svg width="215" height="48" viewBox="0 0 215 48" fill="none" xmlns="http://www.w3.org/2000/svg">
<g clip-path="url(#clip0_20_36)">
<path d="M89.12 14.18L85 25.17C84.71 25.92 84.3 27.17 84.06 27.91C83.95 28.23 83.88 28.46 83.86 28.5L83.7 28.9L83.62 28.48C83.62 28.35 82.9 26.28 82.49 25.17L78.37 14.17H74.41L81.67 32.88H85.74L93 14.18H89.12Z" fill="white"/>
<path d="M104.57 14.18H100.73V32.86H104.57V14.18Z" fill="white"/>
<path d="M128.35 27.44C128.35 23.68 124.85 22.34 121.06 21.44C119.23 21.01 117.72 20.55 117.72 19.22C117.72 17.69 119.72 17.28 120.72 17.28C122.613 17.266 124.474 17.7709 126.1 18.74L127.48 15.82C125.474 14.5053 123.118 13.829 120.72 13.88C115.94 13.88 113.8 16.56 113.8 19.22C113.8 23.09 117.46 24.22 120.89 25.05H121.01C122.65 25.46 124.35 25.87 124.35 27.4C124.35 28.93 122.48 29.74 120.72 29.74C118.497 29.7859 116.323 29.0813 114.55 27.74L113.16 30.67C115.282 32.411 117.979 33.2956 120.72 33.15C124.51 33.18 128.35 31.41 128.35 27.44Z" fill="white"/>
<path d="M140.86 14.18H137.02V32.86H140.86V14.18Z" fill="white"/>
<path d="M165.57 14.18H148.88V17.44H155.31V32.86H159.15V17.44H165.57V14.18Z" fill="white"/>
<path d="M182.77 28.42H182.85L182.9 28.49L185.78 32.87H190.18L186.29 27.37L186.41 27.31C187.484 26.7433 188.381 25.8923 189.004 24.8499C189.626 23.8076 189.95 22.6141 189.94 21.4C189.94 17.02 186.65 14.19 181.57 14.19H173.57V32.86H177.41V28.57H181.19C181.72 28.5655 182.249 28.5153 182.77 28.42V28.42ZM177.41 17.42H181.71C182.281 17.3288 182.866 17.3626 183.423 17.5192C183.98 17.6758 184.496 17.9513 184.937 18.3268C185.377 18.7023 185.73 19.1689 185.973 19.6943C186.215 20.2197 186.341 20.7914 186.341 21.37C186.341 21.9486 186.215 22.5203 185.973 23.0457C185.73 23.5711 185.377 24.0377 184.937 24.4132C184.496 24.7887 183.98 25.0642 183.423 25.2208C182.866 25.3774 182.281 25.4112 181.71 25.32H177.44L177.41 17.42Z" fill="white"/>
<path d="M209.86 14.18L206.94 18.62C206.22 19.72 205.49 21 205.49 21.01L205.37 21.21L205.27 21.01C204.837 20.191 204.36 19.3965 203.84 18.63L200.84 14.18H196.47L203.47 24.39V32.86H207.31V24.36L214.22 14.21L209.86 14.18Z" fill="white"/>
<path d="M52.92 -2.54717e-07C45.11 -2.54717e-07 39.75 2.75 32.59 7.84C24.76 13.4 18.44 16.62 9.30999 16.62C6.9623 16.6194 4.6402 16.1325 2.48999 15.19C4.02893 17.5191 5.69826 19.7593 7.48999 21.9L8.09999 22.66L26.83 45.07C27.3547 45.6963 28.0102 46.1999 28.7506 46.5455C29.4909 46.8911 30.298 47.0702 31.115 47.0702C31.932 47.0702 32.7391 46.8911 33.4794 46.5455C34.2197 46.1999 34.8753 45.6963 35.4 45.07L54.7 21.94C58.43 17.33 63.54 11 62.31 6.42C61.632 4.48973 60.3557 2.82619 58.6669 1.6715C56.978 0.516814 54.9647 -0.0687622 52.92 -2.54717e-07V-2.54717e-07Z" fill="white"/>
<path d="M0 5.76C0 8.11 3.32 11.52 9.31 11.52C16.31 11.52 21.31 9.22 26.6 5.76C21.31 2.3 16.33 0 9.31 0C4 0 0 3 0 5.76Z" fill="white"/>
</g>
<defs>
<clipPath id="clip0_20_36">
<rect width="214.23" height="47.07" fill="white"/>
</clipPath>
</defs>
</svg>
