<svg width="199" height="126" viewBox="0 0 199 126" fill="none" xmlns="http://www.w3.org/2000/svg">
<g clip-path="url(#clip0_51_2)">
<path d="M0 98.47H5.92L11.81 114.17C12.39 115.71 13.39 118.69 13.43 118.9C13.51 118.69 14.43 115.71 15.04 114.17L21.04 98.47H26.92L16.45 125.36H10.45L0 98.47Z" fill="white"/>
<path d="M43.2301 98.47H37.4301V125.32H43.2301V98.47Z" fill="white"/>
<path d="M55 122.13L57.12 117.66C59.6526 119.634 62.7896 120.673 66 120.6C68.23 120.6 71 119.6 71 117.45C71 115.3 68.59 114.84 66.23 114.26C61.14 113.1 56 111.4 56 105.8C56 100.62 60.85 98.05 66 98.05C69.4893 97.9727 72.9179 98.9712 75.82 100.91L73.7 105.39C71.3896 103.955 68.7194 103.206 66 103.23C64.59 103.23 61.93 103.77 61.93 105.8C61.93 107.54 63.88 108.17 66.53 108.8C71.3 109.92 77.02 111.7 77.02 117.46C77.02 123.22 71.38 125.79 66.02 125.79C59.59 125.79 56.57 123.34 55.02 122.14" fill="white"/>
<path d="M94.71 98.47H88.91V125.32H94.71V98.47Z" fill="white"/>
<path d="M105.74 98.47V103.44H114.86V125.32H120.66V103.44H129.78V98.47H105.74Z" fill="white"/>
<path d="M152.45 114.26C153.19 114.308 153.933 114.204 154.632 113.955C155.331 113.706 155.971 113.316 156.514 112.81C157.057 112.304 157.49 111.692 157.788 111.012C158.085 110.332 158.24 109.599 158.244 108.857C158.247 108.114 158.099 107.38 157.807 106.697C157.516 106.014 157.089 105.399 156.551 104.888C156.013 104.376 155.376 103.981 154.679 103.725C153.982 103.469 153.241 103.359 152.5 103.4H146.57V114.26H152.45ZM140.77 98.47H152.29C160.2 98.47 164.35 103.11 164.35 108.87C164.358 110.623 163.887 112.344 162.988 113.849C162.089 115.354 160.797 116.585 159.25 117.41L164.84 125.32H158.17L154 119C153.247 119.134 152.485 119.205 151.72 119.21H146.54V125.3H140.74L140.77 98.47Z" fill="white"/>
<path d="M183.17 113.18L173.06 98.47H179.69L184.04 104.85C184.771 105.944 185.439 107.079 186.04 108.25C186.04 108.25 187.04 106.43 188.11 104.85L192.3 98.47H199L189 113.14V125.32H183.2L183.17 113.18Z" fill="white"/>
<path d="M130.22 0C119.1 0 111.47 3.92 101.28 11.15C90.2 19 81.26 23.58 68.35 23.58C64.8496 23.5777 61.3922 22.8097 58.22 21.33C60.5003 24.8411 62.9915 28.2107 65.68 31.42L66.5 32.42L93.07 64.23C93.8292 65.1411 94.7795 65.8742 95.8535 66.3772C96.9275 66.8803 98.099 67.141 99.285 67.141C100.471 67.141 101.642 66.8803 102.716 66.3772C103.79 65.8742 104.741 65.1411 105.5 64.23L132.89 31.42C138.21 24.84 145.48 15.82 143.72 9.24C142.77 5.66 138.26 0 130.22 0Z" fill="white"/>
<path d="M68.35 0C60.69 0 55 4.41 55 8.35C55 11.76 59.77 16.7 68.38 16.7C78.32 16.7 85.38 13.52 93.24 8.35C85.34 3.17 78.29 0 68.35 0Z" fill="white"/>
</g>
<defs>
<clipPath id="clip0_51_2">
<rect width="198.96" height="125.78" fill="white"/>
</clipPath>
</defs>
</svg>
