<svg width="215" height="48" viewBox="0 0 215 48" fill="none" xmlns="http://www.w3.org/2000/svg">
<g clip-path="url(#clip0_20_16)">
<path d="M74.35 14.18H78.53L82.68 25.25C83.09 26.33 83.79 28.44 83.82 28.58C83.87 28.44 84.55 26.33 84.96 25.25L89.16 14.18H93.31L86 33.14H81.71L74.35 14.18Z" fill="#00A38B"/>
<path d="M104.82 14.18H100.73V33.11H104.82V14.18Z" fill="#00A38B"/>
<path d="M113.12 30.86L114.61 27.71C116.385 29.0928 118.581 29.8237 120.83 29.78C122.41 29.78 124.34 29.05 124.34 27.56C124.34 26.07 122.64 25.72 120.98 25.31C117.45 24.49 113.79 23.31 113.79 19.31C113.79 15.66 117.21 13.85 120.79 13.85C123.25 13.7902 125.67 14.4885 127.72 15.85L126.23 19C124.596 17.9909 122.71 17.4639 120.79 17.48C119.79 17.48 117.93 17.86 117.93 19.29C117.93 20.52 119.3 20.96 121.17 21.4C124.53 22.19 128.56 23.4 128.56 27.5C128.56 31.6 124.56 33.37 120.79 33.37C117.987 33.5208 115.232 32.6023 113.08 30.8" fill="#00A38B"/>
<path d="M141.11 14.18H137.02V33.11H141.11V14.18Z" fill="#00A38B"/>
<path d="M148.88 14.18V17.69H155.31V33.11H159.4V17.69H165.82V14.18H148.88Z" fill="#00A38B"/>
<path d="M181.81 25.31C182.329 25.3365 182.848 25.2573 183.335 25.077C183.822 24.8968 184.267 24.6193 184.644 24.2615C185.02 23.9037 185.32 23.4731 185.525 22.9958C185.73 22.5184 185.836 22.0044 185.836 21.485C185.836 20.9656 185.73 20.4515 185.525 19.9742C185.32 19.4969 185.02 19.0663 184.644 18.7085C184.267 18.3507 183.822 18.0732 183.335 17.893C182.848 17.7127 182.329 17.6335 181.81 17.66H177.63V25.31H181.81ZM173.57 14.18H181.69C187.27 14.18 190.19 17.45 190.19 21.51C190.193 22.7419 189.861 23.9513 189.228 25.0085C188.596 26.0656 187.687 26.9304 186.6 27.51L190.54 33.09H185.84L182.92 28.65C182.388 28.7445 181.85 28.7947 181.31 28.8H177.66V33.09H173.57V14.18Z" fill="#00A38B"/>
<path d="M203.46 24.55L196.33 14.18H201L204.07 18.68C204.594 19.4511 205.071 20.2525 205.5 21.08C205.5 21.08 206.23 19.79 206.96 18.68L209.91 14.18H214.59L207.59 24.52V33.11H203.5L203.46 24.55Z" fill="#00A38B"/>
<path d="M53 -4.07314e-06C45.2 -4.07314e-06 39.82 2.76 32.64 7.86C24.83 13.41 18.53 16.62 9.43004 16.62C6.96022 16.6085 4.52296 16.0555 2.29004 15C3.89442 17.4798 5.65113 19.8577 7.55004 22.12L8.13004 22.83L26.86 45.27C27.395 45.9123 28.0646 46.4291 28.8215 46.7838C29.5785 47.1385 30.4041 47.3223 31.24 47.3223C32.0759 47.3223 32.9016 47.1385 33.6585 46.7838C34.4155 46.4291 35.0851 45.9123 35.62 45.27L54.92 22.15C58.67 17.51 63.8 11.15 62.56 6.51C61.8713 4.5458 60.5714 2.85391 58.8509 1.68235C57.1305 0.510799 55.08 -0.0787988 53 -4.07314e-06V-4.07314e-06Z" fill="url(#paint0_linear_20_16)"/>
<path d="M9.43 0C4 0 0 3.11 0 5.88C0 8.29 3.36 11.77 9.43 11.77C16.43 11.77 21.43 9.53 26.95 5.88C21.41 2.24 16.44 0 9.43 0Z" fill="url(#paint1_linear_20_16)"/>
</g>
<defs>
<linearGradient id="paint0_linear_20_16" x1="14.72" y1="35.2" x2="49.49" y2="-6.24" gradientUnits="userSpaceOnUse">
<stop stop-color="#00A38B"/>
<stop offset="1" stop-color="#88CDAC"/>
</linearGradient>
<linearGradient id="paint1_linear_20_16" x1="180.296" y1="156.776" x2="273.308" y2="-96.8807" gradientUnits="userSpaceOnUse">
<stop stop-color="#00A38B"/>
<stop offset="1" stop-color="#88CDAC"/>
</linearGradient>
<clipPath id="clip0_20_16">
<rect width="214.59" height="47.32" fill="white"/>
</clipPath>
</defs>
</svg>
