<svg width="314" height="532" viewBox="0 0 314 532" fill="none" xmlns="http://www.w3.org/2000/svg">
<path d="M236.494 0H77.114C56.665 0.015625 37.063 8.1445 22.602 22.602C8.14501 37.059 0.016 56.664 0 77.114V454.884C0.015625 475.333 8.1445 494.939 22.602 509.396C37.063 523.853 56.664 531.982 77.114 531.998H236.494C256.943 531.982 276.545 523.853 291.006 509.396C305.463 494.939 313.592 475.334 313.608 454.884V77.114C313.592 56.665 305.463 37.059 291.006 22.602C276.545 8.145 256.944 0.016 236.494 0V0ZM285.607 454.89C285.576 467.906 280.392 480.382 271.189 489.585C261.986 498.788 249.509 503.972 236.494 504.003H77.114C64.098 503.972 51.622 498.788 42.419 489.585C33.2159 480.382 28.032 467.905 28.001 454.89V77.12C28.0323 64.104 33.2158 51.628 42.419 42.425C51.6221 33.2219 64.099 28.038 77.114 28.007H81.1452C77.1804 35.7843 77.5554 45.062 82.1296 52.495C86.7038 59.9286 94.8176 64.44 103.544 64.405H209.944C218.67 64.4402 226.788 59.9284 231.362 52.495C235.936 45.0614 236.307 35.784 232.342 28.007H236.373C249.412 28.007 261.912 33.1789 271.143 42.386C280.37 51.593 285.569 64.085 285.6 77.12L285.607 454.89Z" fill="white"/>
</svg>
