<svg width="64" height="64" viewBox="0 0 64 64" fill="none" xmlns="http://www.w3.org/2000/svg">
<rect width="64" height="64" fill="white"/>
<path d="M49.9295 20.855C48.5817 21.4484 47.1539 21.8401 45.692 22.0175C47.2312 21.0924 48.3836 19.6416 48.9365 17.933C47.51 18.7655 45.929 19.3715 44.246 19.709C43.1356 18.5217 41.6643 17.7341 40.0605 17.4688C38.4566 17.2034 36.81 17.475 35.3764 18.2414C33.9428 19.0078 32.8023 20.2261 32.1321 21.7072C31.4619 23.1883 31.2994 24.8492 31.67 26.432C25.535 26.1425 20.1005 23.195 16.46 18.743C15.7982 19.8677 15.453 21.1505 15.461 22.4555C15.461 25.0205 16.766 27.275 18.743 28.5995C17.5713 28.5622 16.4255 28.2454 15.401 27.6755V27.7655C15.4003 29.4701 15.9894 31.1224 17.0683 32.4421C18.1471 33.7619 19.6493 34.6677 21.32 35.006C20.2374 35.2961 19.1036 35.3396 18.002 35.1335C18.4762 36.6005 19.3965 37.8829 20.6345 38.8018C21.8725 39.7206 23.3665 40.23 24.908 40.259C22.2973 42.3079 19.0737 43.42 15.755 43.4165C15.17 43.4165 14.5865 43.382 14 43.316C17.3836 45.4825 21.3178 46.6325 25.3355 46.6295C38.915 46.6295 46.3325 35.3855 46.3325 25.652C46.3325 25.337 46.3325 25.022 46.31 24.707C47.759 23.6643 49.0088 22.3697 50 20.885L49.9295 20.855Z" fill="#00A38B"/>
</svg>
